<?xml version="1.0" encoding="UTF-8"?>
<svg version="1.1" xmlns="http://www.w3.org/2000/svg" width="70" height="52">
<path d="M0 0 C8.30454517 -0.53158539 14.12687221 -0.59863882 21.1796875 4.0078125 C23.06034025 5.28124543 23.06034025 5.28124543 25.6875 4.5 C26.450625 4.005 27.21375 3.51 28 3 C32.66965833 0.24714465 35.97529265 -0.34032191 41.375 -0.1875 C42.62023438 -0.16042969 43.86546875 -0.13335937 45.1484375 -0.10546875 C46.08945312 -0.07066406 47.03046875 -0.03585937 48 0 C48 0.99 48 1.98 48 3 C50.475 3.495 50.475 3.495 53 4 C53 5.65 53 7.3 53 9 C53.66 9 54.32 9 55 9 C55.02465288 13.68139254 55.04283739 18.36274759 55.05493164 23.04418945 C55.05997157 24.63794614 55.0668035 26.23169819 55.07543945 27.82543945 C55.08751999 30.11150253 55.09323155 32.39750467 55.09765625 34.68359375 C55.10281754 35.40026718 55.10797882 36.11694061 55.11329651 36.85533142 C55.11349263 38.57063672 55.06192007 40.28581266 55 42 C53.25960191 43.74039809 50.83889635 43.21193023 48.46875 43.28125 C47.34855469 43.31863281 46.22835937 43.35601562 45.07421875 43.39453125 C42.69140625 43.46484375 40.30859375 43.53515625 37.92578125 43.60546875 C36.80558594 43.64285156 35.68539062 43.68023437 34.53125 43.71875 C33.49548828 43.74904297 32.45972656 43.77933594 31.39257812 43.81054688 C29.04788385 43.7357549 29.04788385 43.7357549 28 45 C26.1875 45.1328125 26.1875 45.1328125 24 45.125 C23.278125 45.12757812 22.55625 45.13015625 21.8125 45.1328125 C20 45 20 45 19 44 C17.07521187 43.84193469 15.1450079 43.748865 13.21484375 43.68359375 C11.46010742 43.62075195 11.46010742 43.62075195 9.66992188 43.55664062 C8.43822266 43.51732422 7.20652344 43.47800781 5.9375 43.4375 C4.70193359 43.39431641 3.46636719 43.35113281 2.19335938 43.30664062 C-0.87097335 43.20015802 -3.93539073 43.09814576 -7 43 C-9.18073346 38.63853309 -8.22710971 32.78036277 -8.24023438 27.93408203 C-8.24990135 25.7720638 -8.28090494 23.61101224 -8.3125 21.44921875 C-8.3190343 20.06510979 -8.32428309 18.68099405 -8.328125 17.296875 C-8.3374707 16.04229492 -8.34681641 14.78771484 -8.35644531 13.49511719 C-7.9663973 9.67050937 -7.02547284 7.24983499 -5 4 C-2.875 3.3125 -2.875 3.3125 -1 3 C-0.67 2.01 -0.34 1.02 0 0 Z " fill="#FFFAF4" transform="translate(12,4)"/>
<path d="M0 0 C0.495 1.98 0.495 1.98 1 4 C1.763125 4.12375 2.52625 4.2475 3.3125 4.375 C6 5 6 5 9 7 C9.27963793 9.54221521 9.37241506 11.83784527 9.328125 14.37890625 C9.32625183 15.10617416 9.32437866 15.83344208 9.32244873 16.58274841 C9.31572423 18.12023502 9.30180171 19.65770441 9.28125 21.19506836 C9.25007737 23.55663834 9.24027877 25.91754152 9.234375 28.27929688 C9.22520593 29.77084152 9.21483047 31.26237935 9.203125 32.75390625 C9.19675018 33.81950523 9.19675018 33.81950523 9.19024658 34.90663147 C9.11716113 39.88283887 9.11716113 39.88283887 8 41 C6.15962866 41.14572736 4.31409286 41.22727918 2.46875 41.28125 C1.34855469 41.31863281 0.22835937 41.35601562 -0.92578125 41.39453125 C-3.30859375 41.46484375 -5.69140625 41.53515625 -8.07421875 41.60546875 C-9.19441406 41.64285156 -10.31460938 41.68023437 -11.46875 41.71875 C-12.50451172 41.74904297 -13.54027344 41.77933594 -14.60742188 41.81054688 C-16.95211615 41.7357549 -16.95211615 41.7357549 -18 43 C-19.8125 43.1328125 -19.8125 43.1328125 -22 43.125 C-22.721875 43.12757812 -23.44375 43.13015625 -24.1875 43.1328125 C-26 43 -26 43 -27 42 C-28.92478813 41.84193469 -30.8549921 41.748865 -32.78515625 41.68359375 C-34.53989258 41.62075195 -34.53989258 41.62075195 -36.33007812 41.55664062 C-37.56177734 41.51732422 -38.79347656 41.47800781 -40.0625 41.4375 C-41.29806641 41.39431641 -42.53363281 41.35113281 -43.80664062 41.30664062 C-46.87097335 41.20015802 -49.93539073 41.09814576 -53 41 C-54.48679725 38.02640551 -54.11112605 35.33700821 -54.09765625 32.0234375 C-54.09553383 30.99556625 -54.09553383 30.99556625 -54.09336853 29.94692993 C-54.08776675 27.75624239 -54.07521406 25.5656567 -54.0625 23.375 C-54.05748522 21.89062648 -54.05292228 20.40625135 -54.04882812 18.921875 C-54.03779677 15.28121685 -54.02053099 11.64061836 -54 8 C-53.01 7.67 -52.02 7.34 -51 7 C-51 17.23 -51 27.46 -51 38 C-44.49421825 37.96077909 -44.49421825 37.96077909 -37.98852539 37.90991211 C-32.24125934 37.89262291 -26.69980661 38.25756365 -21 39 C-21 37.68 -21 36.36 -21 35 C-20.45730469 34.75765625 -19.91460937 34.5153125 -19.35546875 34.265625 C-18.64003906 33.93046875 -17.92460938 33.5953125 -17.1875 33.25 C-16.12595703 32.76273438 -16.12595703 32.76273438 -15.04296875 32.265625 C-11.86713795 30.29818871 -10.33978872 28.23300577 -9.34765625 24.6328125 C-8.85917244 20.33683163 -8.71503307 17.6690528 -10.4375 13.625 C-13.60502489 10.38021841 -16.8451077 8.71439731 -21 7 C-14.7441027 0.0222684 -8.92006 -0.42854381 0 0 Z " fill="#FFDAAD" transform="translate(58,6)"/>
<path d="M0 0 C5.19331355 0.04470571 9.22864124 1.22806674 13.4375 4.3125 C14.4275 5.7975 14.4275 5.7975 15.4375 7.3125 C14.89480469 7.62703125 14.35210937 7.9415625 13.79296875 8.265625 C13.07753906 8.69359375 12.36210937 9.1215625 11.625 9.5625 C10.91730469 9.98015625 10.20960937 10.3978125 9.48046875 10.828125 C6.4656486 13.0186253 4.69564776 14.92408369 4.00390625 18.64453125 C3.99428091 24.75662027 4.9369324 28.28043407 8.4375 33.3125 C3.8175 33.3125 -0.8025 33.3125 -5.5625 33.3125 C-5.58541161 28.77345634 -5.60533781 24.23461198 -5.61743164 19.69555664 C-5.6224714 18.15030234 -5.6293032 16.60505284 -5.63793945 15.05981445 C-5.65002076 12.84324971 -5.65573173 10.62674782 -5.66015625 8.41015625 C-5.66531754 7.7153566 -5.67047882 7.02055695 -5.67579651 6.30470276 C-5.67599277 4.6402067 -5.62439129 2.97584501 -5.5625 1.3125 C-3.94996547 -0.30003453 -2.22650957 0.06458577 0 0 Z " fill="#FF8F05" transform="translate(18.5625,5.6875)"/>
<path d="M0 0 C0 10.89 0 21.78 0 33 C-4.62 33 -9.24 33 -14 33 C-13.360625 32.21625 -12.72125 31.4325 -12.0625 30.625 C-9.27176417 26.40388703 -8.6825683 21.99751441 -9 17 C-11.45568427 11.2344804 -15.46974489 9.28190138 -21 7 C-14.39647716 -0.36546778 -10.37363579 0 0 0 Z " fill="#FF8F06" transform="translate(58,6)"/>
<path d="M0 0 C0.66 0 1.32 0 2 0 C2 10.23 2 20.46 2 31 C8.7760414 30.96050185 8.7760414 30.96050185 15.55200195 30.90991211 C16.81983521 30.90616577 16.81983521 30.90616577 18.11328125 30.90234375 C18.97735596 30.89710693 19.84143066 30.89187012 20.73168945 30.88647461 C23 31 23 31 26 32 C27.45598022 32.09270286 28.91608005 32.12997925 30.375 32.125 C31.12523437 32.12757812 31.87546875 32.13015625 32.6484375 32.1328125 C35.00033261 32.06349489 35.00033261 32.06349489 37.25 31.5 C41.05290881 30.80856203 44.76844676 30.85525655 48.625 30.875 C49.388125 30.87113281 50.15125 30.86726563 50.9375 30.86328125 C54.21351362 30.86902864 56.87137676 30.95712559 60 32 C60 21.44 60 10.88 60 0 C60.66 0 61.32 0 62 0 C62.02465288 4.68139254 62.04283739 9.36274759 62.05493164 14.04418945 C62.05997157 15.63794614 62.0668035 17.23169819 62.07543945 18.82543945 C62.08751999 21.11150253 62.09323155 23.39750467 62.09765625 25.68359375 C62.10281754 26.40026718 62.10797882 27.11694061 62.11329651 27.85533142 C62.11349263 29.57063672 62.06192007 31.28581266 62 33 C60.25960191 34.74039809 57.83889635 34.21193023 55.46875 34.28125 C54.34855469 34.31863281 53.22835937 34.35601562 52.07421875 34.39453125 C49.69140625 34.46484375 47.30859375 34.53515625 44.92578125 34.60546875 C43.80558594 34.64285156 42.68539062 34.68023437 41.53125 34.71875 C40.49548828 34.74904297 39.45972656 34.77933594 38.39257812 34.81054688 C36.04788385 34.7357549 36.04788385 34.7357549 35 36 C33.1875 36.1328125 33.1875 36.1328125 31 36.125 C30.278125 36.12757812 29.55625 36.13015625 28.8125 36.1328125 C27 36 27 36 26 35 C24.07521187 34.84193469 22.1450079 34.748865 20.21484375 34.68359375 C18.46010742 34.62075195 18.46010742 34.62075195 16.66992188 34.55664062 C15.43822266 34.51732422 14.20652344 34.47800781 12.9375 34.4375 C11.70193359 34.39431641 10.46636719 34.35113281 9.19335938 34.30664062 C6.12902665 34.20015802 3.06460927 34.09814576 0 34 C-1.48125044 31.03749913 -1.12990684 28.36087105 -1.1328125 25.05859375 C-1.13376923 24.37571793 -1.13472595 23.6928421 -1.13571167 22.98927307 C-1.13639223 21.54598905 -1.1345466 20.10270197 -1.13037109 18.65942383 C-1.12501282 16.44280172 -1.13032443 14.22638148 -1.13671875 12.00976562 C-1.13605811 10.60937455 -1.13477723 9.2089836 -1.1328125 7.80859375 C-1.13168457 6.52782959 -1.13055664 5.24706543 -1.12939453 3.92749023 C-1 1 -1 1 0 0 Z " fill="#FF930E" transform="translate(5,13)"/>
<path d="M0 0 C0.66 0.33 1.32 0.66 2 1 C2 2.32 2 3.64 2 5 C2.78375 5.12375 3.5675 5.2475 4.375 5.375 C7 6 7 6 9 8 C8.609375 10.75 8.609375 10.75 7.75 14 C7.34007812 15.60875 7.34007812 15.60875 6.921875 17.25 C6 20 6 20 4 22 C0.375 22.125 0.375 22.125 -3 22 C-4.59412284 18.81175432 -4.10174735 15.37103338 -4.0625 11.875 C-4.05798828 11.12089844 -4.05347656 10.36679687 -4.04882812 9.58984375 C-4.03703499 7.72652873 -4.01909942 5.86325445 -4 4 C-3.34 4 -2.68 4 -2 4 C-1.67 3.01 -1.34 2.02 -1 1 C-0.67 0.67 -0.34 0.34 0 0 Z " fill="#FF930E" transform="translate(35,16)"/>
<path d="M0 0 C0.99 0 1.98 0 3 0 C3 10.23 3 20.46 3 31 C7.29 31 11.58 31 16 31 C20.3125 32.5 20.3125 32.5 23 34 C19.75034611 35.08321796 19.12734894 34.85931992 16 34 C14.63199181 33.92291277 13.26076408 33.89196391 11.890625 33.90234375 C10.75947266 33.90717773 10.75947266 33.90717773 9.60546875 33.91210938 C8.82816406 33.92048828 8.05085938 33.92886719 7.25 33.9375 C6.45722656 33.94201172 5.66445312 33.94652344 4.84765625 33.95117188 C2.89840492 33.96291435 0.94919262 33.98084854 -1 34 C-1.02465288 29.31860746 -1.04283739 24.63725241 -1.05493164 19.95581055 C-1.05997157 18.36205386 -1.0668035 16.76830181 -1.07543945 15.17456055 C-1.08751999 12.88849747 -1.09323155 10.60249533 -1.09765625 8.31640625 C-1.10281754 7.59973282 -1.10797882 6.88305939 -1.11329651 6.14466858 C-1.11349263 4.42936328 -1.06192007 2.71418734 -1 1 C-0.67 0.67 -0.34 0.34 0 0 Z " fill="#FF9C22" transform="translate(9,9)"/>
<path d="M0 0 C0.99 0 1.98 0 3 0 C3 10.89 3 21.78 3 33 C-2.28 33 -7.56 33 -13 33 C-15.6740821 33.26740821 -18.34914598 33.558191 -21 34 C-14.12552193 28.54782774 -11.32322726 30 -1 30 C-0.67 20.1 -0.34 10.2 0 0 Z " fill="#FF8E03" transform="translate(60,10)"/>
<path d="M0 0 C0.66 0 1.32 0 2 0 C2.02465288 4.68139254 2.04283739 9.36274759 2.05493164 14.04418945 C2.05997157 15.63794614 2.0668035 17.23169819 2.07543945 18.82543945 C2.08751999 21.11150253 2.09323155 23.39750467 2.09765625 25.68359375 C2.10281754 26.40026718 2.10797882 27.11694061 2.11329651 27.85533142 C2.11349263 29.57063672 2.06192007 31.28581266 2 33 C1 34 1 34 -1.40844727 34.11352539 C-2.45057373 34.10828857 -3.4927002 34.10305176 -4.56640625 34.09765625 C-5.69111328 34.09443359 -6.81582031 34.09121094 -7.97460938 34.08789062 C-9.15861328 34.07951172 -10.34261719 34.07113281 -11.5625 34.0625 C-12.75037109 34.05798828 -13.93824219 34.05347656 -15.16210938 34.04882812 C-18.10812226 34.03699675 -21.05403681 34.02051287 -24 34 C-23 32 -23 32 -20 31 C-17.15629549 30.90331405 -14.3429273 30.86076163 -11.5 30.875 C-10.72785156 30.87113281 -9.95570312 30.86726563 -9.16015625 30.86328125 C-5.85496263 30.86900949 -3.15622502 30.94792499 0 32 C0 21.44 0 10.88 0 0 Z " fill="#FF8D00" transform="translate(65,13)"/>
<path d="M0 0 C13.6332574 -0.55353075 13.6332574 -0.55353075 20 3 C19.6875 4.9375 19.6875 4.9375 19 7 C16 8 16 8 13 7 C10.26710707 6.77202438 7.54957796 6.58331813 4.8125 6.4375 C4.06291016 6.39431641 3.31332031 6.35113281 2.54101562 6.30664062 C0.69421625 6.20077315 -1.15286834 6.0999024 -3 6 C-3 5.34 -3 4.68 -3 4 C2.33333333 4 7.66666667 4 13 4 C8.71 3.01 4.42 2.02 0 1 C0 0.67 0 0.34 0 0 Z " fill="#FFE3C2" transform="translate(15,38)"/>
<path d="M0 0 C-0.66 0 -1.32 0 -2 0 C-2 0.66 -2 1.32 -2 2 C-2.33 2.33 -2.66 2.66 -3 3 C-2.01 3.33 -1.02 3.66 0 4 C0 4.33 0 4.66 0 5 C-2.31 5.33 -4.62 5.66 -7 6 C-7.33 4.35 -7.66 2.7 -8 1 C-3.375 -1.125 -3.375 -1.125 0 0 Z " fill="#FFD199" transform="translate(45,40)"/>
<path d="M0 0 C-2.90092502 1.93395001 -3.89674737 2.30131941 -7.1875 2.625 C-8.445625 2.74875 -9.70375 2.8725 -11 3 C-7.18178484 -0.02823961 -4.81391924 -1.49397494 0 0 Z " fill="#FF9F29" transform="translate(50,41)"/>
<path d="M0 0 C2.97 0.495 2.97 0.495 6 1 C5.67 2.32 5.34 3.64 5 5 C4.01 5 3.02 5 2 5 C2 3.68 2 2.36 2 1 C1.34 0.67 0.68 0.34 0 0 Z " fill="#FFC883" transform="translate(29,40)"/>
<path d="" fill="#000000" transform="translate(0,0)"/>
<path d="" fill="#000000" transform="translate(0,0)"/>
<path d="" fill="#000000" transform="translate(0,0)"/>
<path d="" fill="#000000" transform="translate(0,0)"/>
</svg>
